HIERARCHY
ROOT Hips
{
  OFFSET -35.2597 29.1586 114.425
  CHANNELS 6 Xposition Yposition Zposition Zrotation Xrotation Yrotation
  JOINT LeftUpLeg
  {
    OFFSET 8.64259 1.95398 -2.38835
    CHANNELS 3 Zrotation Xrotation Yrotation
    JOINT LeftLeg
    {
      OFFSET 43.7702 0 0
      CHANNELS 3 Zrotation Xrotation Yrotation
      JOINT LeftFoot
      {
        OFFSET 40.6238 0 0
        CHANNELS 3 Zrotation Xrotation Yrotation
        JOINT LeftToeBase
        {
          OFFSET 12.7242 0 0
          CHANNELS 3 Zrotation Xrotation Yrotation
          End Site
          {
            OFFSET 0 0 0
          }
        }
      }
    }
  }
  JOINT RightUpLeg
  {
    OFFSET -8.2249 1.95398 -2.59336
    CHANNELS 3 Zrotation Xrotation Yrotation
    JOINT RightLeg
    {
      OFFSET 43.5653 0 0
      CHANNELS 3 Zrotation Xrotation Yrotation
      JOINT RightFoot
      {
        OFFSET 40.6238 0 0
        CHANNELS 3 Zrotation Xrotation Yrotation
        JOINT RightToeBase
        {
          OFFSET 12.7242 0 0
          CHANNELS 3 Zrotation Xrotation Yrotation
          End Site
          {
            OFFSET 0 0 0
          }
        }
      }
    }
  }
  JOINT Spine
  {
    OFFSET 0.165834 0.87714 6.61349
    CHANNELS 3 Zrotation Xrotation Yrotation
    JOINT Spine1
    {
      OFFSET 7.38963 1.71661e-005 0
      CHANNELS 3 Zrotation Xrotation Yrotation
      JOINT Spine2
      {
        OFFSET 11.9445 1.14441e-005 0
        CHANNELS 3 Zrotation Xrotation Yrotation
        JOINT Spine3
        {
          OFFSET 14.7254 4.19617e-005 0
          CHANNELS 3 Zrotation Xrotation Yrotation
          JOINT Spine4
          {
            OFFSET 10.9679 0 0
            CHANNELS 3 Zrotation Xrotation Yrotation
            JOINT RightShoulder
            {
              OFFSET 2.46616 -1.6653 3.69651
              CHANNELS 3 Zrotation Xrotation Yrotation
              JOINT RightArm
              {
                OFFSET 13.0012 0 0
                CHANNELS 3 Zrotation Xrotation Yrotation
                JOINT RightForeArm
                {
                  OFFSET 28.7848 1.62311e-005 0
                  CHANNELS 3 Zrotation Xrotation Yrotation
                  JOINT RightHand
                  {
                    OFFSET 26.5688 1.62095e-005 0
                    CHANNELS 3 Zrotation Xrotation Yrotation
                    End Site
                    {
                      OFFSET 0 0 0
                    }
                  }
                }
              }
            }
            JOINT LeftShoulder
            {
              OFFSET 2.38034 -1.29275 -3.7523
              CHANNELS 3 Zrotation Xrotation Yrotation
              JOINT LeftArm
              {
                OFFSET 16.3182 6.07031e-005 0
                CHANNELS 3 Zrotation Xrotation Yrotation
                JOINT LeftForeArm
                {
                  OFFSET 27.0901 0 0
                  CHANNELS 3 Zrotation Xrotation Yrotation
                  JOINT LeftHand
                  {
                    OFFSET 24.5451 1.51738e-005 0
                    CHANNELS 3 Zrotation Xrotation Yrotation
                    End Site
                    {
                      OFFSET 0 0 0
                    }
                  }
                }
              }
            }
            JOINT Neck
            {
              OFFSET 5.0226 -0.0266342 0
              CHANNELS 3 Zrotation Xrotation Yrotation
              JOINT Head
              {
                OFFSET 6.69364 2.86102e-005 0
                CHANNELS 3 Zrotation Xrotation Yrotation
                End Site
                {
                  OFFSET 0 0 0
                }
              }
            }
          }
        }
      }
    }
  }
}
MOTION
Frames:	12
Frame Time:	0.0416667
-336.005 93.4293 318.112 -102.611 -39.7451 -81.7494 -171.733 18.8359 106.446 -37.8424 16.0258 1.91089 72.9436 6.2049 1.55187 15.6446 -12.1801 7.73015 -174.863 3.47505 107.561 -8.34615 2.2952 0.487625 54.4371 -2.21135 0.916032 24.5671 0.933688 2.57656 -0.63887 12.7527 -90.5667 1.36568 -1.49081 -1.14958 -10.3049 -1.53993 -1.08287 -32.8398 -1.06991 -1.54445 -12.8271 -1.06993 -1.54445 90.107 3.84086 -133.657 39.3644 -5.53913 -57.7409 -3.43463 -3.87797 -4.89518 -23.2217 0.1685 -6.07068 -80.1634 -20.1236 91.5288 -40.375 1.96552 -40.5832 179.03 26.8944 -180 52.6837 10.2019 15.2232 72.3719 -8.1243 -12.5452 -49.3321 7.89825 -7.86111 
-336.026 93.4333 318.078 -102.586 -39.8927 -81.5132 -171.762 18.9708 106.682 -37.9199 16.5784 2.00256 72.9454 6.34852 1.94616 15.2754 -12.1503 7.33925 -174.844 3.5989 107.847 -8.34854 1.28386 0.550709 54.9031 -2.3796 0.0743811 23.2008 1.87694 1.4826 -0.636998 12.7519 -90.5834 1.3664 -1.49325 -1.18266 -10.3042 -1.54387 -1.1158 -32.8391 -1.06919 -1.57674 -12.8265 -1.06921 -1.57675 90.1413 3.90256 -133.635 38.6223 -4.61144 -57.6381 -3.64435 -8.96131 -4.89165 -17.6985 -0.248361 -3.6647 -80.1211 -20.0106 91.6144 -40.4827 2.08445 -40.6624 179.043 26.3443 -180 51.5725 10.0857 15.4615 72.5437 -7.98542 -12.337 -49.4762 8.15468 -8.41378 
-336.091 93.3642 317.936 -102.37 -40.6244 -80.5946 -171.798 19.8352 107.639 -38.4929 18.1245 2.14519 73.2075 6.80213 2.22565 14.9964 -12.5032 7.57005 -174.556 4.07081 108.673 -8.37719 2.44946 0.671875 54.8265 -2.3399 0.100332 23.5807 1.73949 1.42055 -0.650424 12.7445 -90.6775 1.37154 -1.55607 -1.36815 -10.2991 -1.61477 -1.29835 -32.8326 -1.07301 -1.77249 -12.8199 -1.07301 -1.7725 89.9906 3.62605 -133.724 38.9653 -4.96905 -57.5085 -3.59195 -7.69191 -4.89025 -20.0477 -0.133206 -4.47455 -80.0454 -20.0375 91.7913 -40.6385 2.37858 -41.1428 179.093 24.4163 -180 47.2267 9.27515 15.7362 72.7808 -7.72176 -11.8657 -49.6822 8.57546 -9.51851 
-336.249 93.364 317.815 -102.225 -40.9606 -80.0278 -171.633 20.1762 108.512 -38.864 19.0249 2.00799 73.1205 6.80588 2.20183 15.6033 -12.0507 7.50747 -174.169 3.97709 109.267 -7.95594 3.30051 0.721542 54.5411 -2.32395 0.119505 23.7872 1.63537 1.47025 -0.643767 12.735 -90.7144 1.38491 -1.55678 -1.43947 -10.286 -1.61863 -1.36958 -32.8178 -1.05232 -1.84073 -12.8051 -1.05231 -1.84074 89.7973 3.20851 -133.73 39.0908 -5.03963 -57.3122 -3.5958 -7.78767 -4.8903 -20.5544 -0.0393869 -5.02214 -79.9444 -20.0383 92.024 -41.1864 3.22973 -42.2204 179.183 21.1143 -180 38.3231 7.30915 15.4257 72.9444 -7.27785 -11.0472 -49.7648 9.12658 -11.2612 
-336.42 94.0891 320.498 -103.272 -38.2375 -90.4159 -174.043 10.5685 96.0688 -29.81 8.07193 2.14671 71.2548 4.91387 0.872729 13.9731 -12.9603 7.24583 -179.804 3.00745 98.4337 -14.7572 -5.41856 -0.300541 59.0562 -2.51537 0.556657 24.0856 1.57503 1.28223 -1.06053 12.7125 -89.5082 1.45396 -1.92929 0.901025 -10.2159 -1.88776 0.98508 -32.7621 -2.11084 0.279319 -12.7495 -2.11085 0.279315 89.6187 2.78967 -133.684 38.9834 -4.85419 -57.1655 -3.60754 -8.06468 -4.8917 -20.0431 -0.0445249 -4.99046 -79.8071 -20.0739 92.3431 -42.4528 5.09706 -44.1656 179.319 16.4441 -180 23.5923 3.91371 12.8162 73.3394 -6.50331 -9.73216 -49.9334 9.91878 -13.7133 
-336.859 94.5711 324.089 -103.547 -35.837 -101.828 178.977 3.40716 80.6399 -16.1022 -3.28593 3.80911 66.2751 3.39825 0.158833 14.2995 -12.6972 7.18748 173.14 7.46601 85.9384 -24.95 -15.5292 -1.9886 65.1384 -3.30929 0.459737 25.2838 1.15087 1.04369 -1.61457 12.6105 -88.1669 1.67091 -2.52086 3.50643 -10.0027 -2.3642 3.61384 -32.5337 -3.45778 2.58721 -12.5211 -3.45778 2.58722 89.1691 1.86409 -133.782 38.7263 -4.42514 -56.844 -3.62543 -8.49186 -4.89324 -19.4925 -0.0860224 -4.73788 -79.7013 -20.0975 92.5885 -44.3394 7.71465 -46.188 179.49 11.1624 -180 5.604 0.775307 7.26318 73.6162 -5.57997 -8.13349 -50.0302 10.7935 -16.6695 
-337.335 94.6719 325.603 -103.269 -35.0667 -106.772 174.424 -2.31454 74.0885 -8.1307 -7.65834 4.87233 63.0134 3.31176 0.0270847 14.2667 -12.6414 7.07927 170.488 8.35738 78.5709 -28.7455 -20.0419 -2.79525 67.4527 -4.09416 0.148692 25.5071 1.13817 0.799046 -1.85581 12.5266 -87.5526 1.84895 -2.76391 4.70491 -9.82802 -2.55438 4.82167 -32.3413 -4.04925 3.6584 -12.3286 -4.04923 3.65841 88.7919 1.05018 -133.807 38.6759 -4.23499 -56.5069 -3.62184 -8.41685 -4.89039 -20.1348 -0.0403335 -5.01566 -79.5589 -20.2987 92.9318 -45.7745 9.81949 -47.7287 179.661 6.2211 -180 -9.88676 -0.441181 0.665359 73.8965 -4.57336 -6.43037 -50.0493 11.7749 -19.9376 
-337.699 94.6785 325.749 -102.747 -34.6685 -108.64 173.498 -2.11243 71.9113 -6.82886 -8.71194 4.62798 62.6501 3.30121 0.0346708 14.0432 -12.8382 7.14362 170.137 9.91036 76.612 -30.3833 -21.2798 -3.49897 68.0784 -4.26285 -0.0648142 25.9337 0.972982 0.751069 -1.89782 12.433 -87.2693 2.0371 -2.73471 5.26668 -9.64211 -2.50061 5.38153 -32.141 -4.18986 4.20382 -12.1283 -4.18984 4.20383 88.1416 -0.170744 -134.128 38.3767 -3.60978 -55.7632 -3.65604 -9.24142 -4.89134 -19.8246 -0.0449056 -4.98668 -79.4832 -20.6341 93.131 -46.8672 11.1549 -48.1897 179.819 1.90767 -180 -21.0531 -0.0496044 -4.34947 73.9416 -3.39949 -4.52893 -49.9524 12.8798 -23.6669 
-337.889 94.6553 324.949 -102.04 -34.1943 -108.778 174.566 -1.60401 72.5771 -7.19442 -8.31191 3.32826 62.2416 3.09586 0.0657371 14.8519 -11.9501 6.66314 171.248 10.6631 77.1695 -31.0209 -20.5182 -4.45091 67.9928 -4.09369 -0.18053 25.9976 0.848066 1.05235 -1.78778 12.3454 -87.1746 2.20675 -2.47468 5.46447 -9.47375 -2.23216 5.56767 -31.9612 -4.00107 4.471 -11.9486 -4.00108 4.47099 87.4703 -1.53695 -134.296 38.0376 -2.97698 -55.096 -3.67049 -9.58909 -4.89185 -19.8255 -0.0903096 -4.7187 -79.3925 -21.2982 93.3846 -47.2 11.6754 -48.5524 179.957 -1.73077 -180 -27.1589 0.517855 -7.03483 73.735 -2.00178 -2.32462 -49.5229 13.8949 -27.644 
-338.023 94.5341 323.391 -101.361 -33.8072 -107.072 177.147 -0.995755 75.8586 -8.36278 -6.00096 1.65006 62.3824 3.31108 0.358856 14.6975 -12.2465 6.93239 173.584 10.6601 80.2358 -30.6759 -17.8413 -5.21249 67.1912 -3.70016 -0.184026 26.1618 0.701382 1.29358 -1.51461 12.2751 -87.2918 2.33672 -1.97175 5.25047 -9.34367 -1.73909 5.33184 -31.8264 -3.45717 4.41769 -11.8137 -3.45716 4.41769 86.8359 -2.76432 -134.542 37.6779 -2.15115 -53.8921 -3.66145 -9.40086 -4.88679 -19.1754 -0.079487 -4.77122 -79.5092 -21.8983 93.1649 -47.4433 11.7966 -48.2925 -179.931 -4.57681 -180 -30.3452 0.770465 -7.73587 73.109 -0.545447 -0.0514006 -48.6645 14.8231 -31.8458 
-338.042 94.239 321.405 -100.937 -33.2476 -103.352 -178.235 3.14568 81.5996 -15.4533 -2.27472 -0.390065 65.8108 3.78553 0.204976 13.7862 -13.1514 7.33386 177.011 10.4208 85.558 -29.1545 -13.7802 -5.31644 65.7294 -3.48709 0.0380311 25.886 0.765078 1.45106 -1.04657 12.2178 -87.6154 2.43828 -1.16101 4.63681 -9.24055 -0.956017 4.68327 -31.7259 -2.49978 4.07513 -11.7132 -2.49979 4.07513 85.7576 -4.63914 -135.208 36.8586 -0.625712 -51.964 -3.66814 -9.53966 -4.88865 -19.7483 0.127094 -6.00216 -79.6124 -22.6975 92.9954 -47.6775 11.938 -48.0943 -179.806 -7.68594 -180 -34.1389 1.28256 -9.10228 72.1376 0.520589 1.78911 -47.7455 15.2505 -35.0077 
-337.752 93.6614 319.49 -101.788 -31.5509 -103.266 -175.477 4.13831 84.4197 -20.031 -0.832776 -2.42083 67.5245 3.87292 0.151651 13.532 -13.2886 7.28517 179.679 10.8333 87.6805 -31.0829 -11.6621 -6.21524 65.4373 -3.86873 0.0475826 26.1499 0.693938 1.33112 -0.650465 12.2604 -87.5972 2.33768 -0.364733 4.68449 -9.34168 -0.158422 4.69595 -31.8168 -1.75445 4.35947 -11.8041 -1.75446 4.35946 84.8817 -6.25276 -135.604 35.972 0.954597 -49.7956 -3.64655 -9.0149 -4.89131 -20.1844 0.321064 -7.11343 -79.9788 -23.7817 92.283 -47.9054 12.0149 -47.7833 -179.681 -10.7372 -180 -40.0165 2.45595 -11.7342 70.3388 1.47026 3.52023 -46.114 15.0336 -37.3592 
